<svg width="141" height="40" viewBox="0 0 141 40" fill="none" xmlns="http://www.w3.org/2000/svg">
<g opacity="0.8" clip-path="url(#clip0)">
<path d="M21.6829 9.58898H16.576L9.76231 26.3913H14.1339L19.1329 13.416L24.1251 26.3913H28.4966L21.6829 9.58898Z" fill="white"/>
<path d="M17.2844 38.7382H17.2372C14.6736 38.4745 12.2045 37.697 9.97149 36.4799C5.67413 34.1269 2.26727 30.1241 0.783099 25.0462C-0.707822 19.9683 0.000534109 14.7619 2.34823 10.4549C3.55581 8.2371 5.20189 6.25598 7.19878 4.6535L7.23926 4.6197C7.23926 4.6197 7.23926 4.6197 7.24601 4.61294C10.2009 2.18556 13.8303 0.562797 17.7567 0.0556849C17.7769 0.0489234 17.9051 0.0354004 17.9253 0.0354004L19.5714 4.09906C19.5512 4.09906 19.4162 4.11259 19.3893 4.11259C15.8879 4.32895 12.6363 5.64745 10.0255 7.75703C9.98498 7.79084 9.9445 7.82465 9.90403 7.85846C9.83657 7.91255 9.7691 7.96664 9.70839 8.02073H9.70164L9.68815 8.03426C9.66791 8.04778 9.65442 8.0613 9.63418 8.07482C8.15675 9.29866 6.92893 10.7929 6.02493 12.4563C4.18995 15.8235 3.63676 19.8939 4.80386 23.8629C5.96422 27.8319 8.62224 30.9557 11.9751 32.7949C13.7494 33.7685 15.726 34.3771 17.7769 34.5664C22.2497 34.9383 26.4593 33.4981 29.684 30.8476C29.8392 30.7191 29.9944 30.5906 30.1428 30.4554L31.7956 34.5258C27.7951 37.5955 22.6814 39.2251 17.2844 38.7382Z" fill="white"/>
<path d="M59.1924 6.71497H55.9812V25.5255H59.1924V6.71497ZM63.6449 10.4744C64.8053 10.4744 65.6756 9.63594 65.6756 8.44592C65.6756 7.28294 64.8053 6.41747 63.6449 6.41747C62.4846 6.41747 61.5738 7.28294 61.5738 8.44592C61.5738 9.63594 62.4643 10.4744 63.6449 10.4744ZM65.2303 12.0836H61.9921V25.5255H65.2303V12.0836ZM74.8707 9.08826C75.4644 9.08826 76.1795 9.26406 77.016 9.63594L78.0279 7.1139C76.8473 6.49184 75.633 6.19434 74.4254 6.19434C71.2412 6.19434 69.0892 8.07403 69.0892 11.4683V12.0836H66.9641V14.8085H69.0892V25.5255H72.3004V14.8085H76.4965V12.0836H72.3004V11.5427C72.3004 9.96049 73.2111 9.08826 74.8707 9.08826Z" fill="white"/>
<path d="M50.2265 18.7909C50.2265 19.9539 49.8555 20.9208 49.1134 21.7119C48.3713 22.5097 47.2244 22.9019 46.0641 22.9019C44.9037 22.9019 43.9592 22.5097 43.2239 21.7119C42.502 20.9275 42.1377 19.9539 42.1377 18.7909C42.1377 17.655 42.502 16.6813 43.2239 15.897C43.9592 15.0991 44.9037 14.707 46.0641 14.707C47.2244 14.707 48.3713 15.1059 49.1134 15.897C49.8555 16.6881 50.2265 17.655 50.2265 18.7909ZM50.1523 13.3344C48.9514 12.2999 47.4808 11.7657 45.7807 11.7657C43.8783 11.7657 42.0635 12.4351 40.802 13.7468C39.5404 15.0586 38.9265 16.7422 38.9265 18.7436C38.9265 20.7517 39.5404 22.4556 40.802 23.8215C42.0635 25.1805 43.8513 25.8499 45.7807 25.8499C47.5347 25.8499 48.83 25.3428 50.1523 24.288V25.5254H53.2151V12.0835H50.1523V13.3344Z" fill="white"/>
<path d="M98.1856 11.9419C96.1145 11.9419 94.2593 12.9291 93.3688 14.4166C92.6065 12.8547 90.9739 11.9419 89.1726 11.9419C87.4186 11.9419 85.9884 12.8345 85.1991 14.2408V12.2868H83.047V25.5325H85.2463V18.1017C85.2463 15.6269 86.7305 13.9974 88.8758 13.9974C90.9267 13.9974 92.1612 15.5052 92.1612 18.0543V25.5325H94.3605V18.0543C94.3605 15.654 95.8177 13.9974 97.963 13.9974C99.9666 13.9974 101.221 15.4309 101.221 18.007V25.5325H103.421V17.6824C103.421 15.9245 102.955 14.5383 102.018 13.5038C101.08 12.4626 99.7912 11.9419 98.1856 11.9419ZM105.627 18.8995C105.627 20.8536 106.274 22.5102 107.583 23.8489C108.892 25.181 110.545 25.8503 112.542 25.8503C114.545 25.8503 116.198 25.181 117.507 23.8489C118.816 22.5102 119.457 20.8536 119.457 18.8995C119.457 16.9657 118.795 15.3294 117.487 13.9974C116.178 12.6316 114.545 11.969 112.542 11.969C110.545 11.969 108.892 12.6316 107.583 13.9974C106.274 15.3294 105.627 16.9657 105.627 18.8995ZM117.237 18.8995C117.237 20.2586 116.792 21.4216 115.881 22.3885C114.964 23.3486 113.85 23.8219 112.542 23.8219C111.233 23.8219 110.126 23.3486 109.209 22.3885C108.298 21.4216 107.853 20.2586 107.853 18.8995C107.853 17.5607 108.298 16.418 109.209 15.4579C110.126 14.491 111.233 13.9974 112.542 13.9974C113.85 13.9974 114.964 14.491 115.881 15.4579C116.792 16.418 117.237 17.5607 117.237 18.8995ZM128.611 11.969C126.655 11.969 125.076 12.7601 123.869 14.3152V6.79643H121.669V25.5325H123.869V23.5717C125.049 25.0863 126.635 25.8503 128.584 25.8503C130.487 25.8503 132.045 25.1877 133.3 23.8489C134.568 22.4899 135.202 20.8536 135.202 18.9198C135.202 16.9928 134.561 15.3565 133.3 13.9974C132.038 12.6316 130.487 11.969 128.611 11.969ZM128.362 23.7746C126.979 23.7746 125.865 23.3013 125.029 22.3614C124.186 21.4216 123.767 20.2586 123.767 18.8995C123.767 17.5337 124.186 16.3978 125.029 15.4579C125.865 14.5181 126.979 14.0448 128.362 14.0448C129.718 14.0448 130.817 14.5248 131.667 15.4579C132.524 16.3842 132.956 17.5337 132.956 18.8995C132.956 20.2586 132.531 21.4148 131.667 22.3614C130.824 23.2945 129.718 23.7746 128.362 23.7746ZM138.717 10.3597C139.608 10.3597 140.323 9.64302 140.323 8.72346C140.323 7.81066 139.608 7.11422 138.717 7.11422C137.752 7.11422 137.064 7.81066 137.064 8.72346C137.064 9.64302 137.752 10.3597 138.717 10.3597ZM139.783 12.2868H137.584V25.5325H139.783V12.2868Z" fill="white"/>
</g>
<defs>
<clipPath id="clip0">
<rect width="140.952" height="40" fill="white"/>
</clipPath>
</defs>
</svg>
